<svg width="229" height="69" viewBox="0 0 229 69" fill="none" xmlns="http://www.w3.org/2000/svg">
<path d="M70.7151 35.076C70.7151 36.388 70.5711 37.42 70.2831 38.172C69.9951 38.908 69.5791 39.444 69.0351 39.78C68.5071 40.116 67.8511 40.332 67.0671 40.428C66.2991 40.508 65.4271 40.548 64.4511 40.548C63.9871 40.548 63.4991 40.54 62.9871 40.524C62.4911 40.524 61.9951 40.524 61.4991 40.524C61.0191 40.524 60.5791 40.516 60.1791 40.5C59.7951 40.5 59.4831 40.5 59.2431 40.5V30.996C59.2431 30.484 59.3071 30.108 59.4351 29.868C59.5791 29.628 59.9391 29.492 60.5151 29.46C60.7711 29.444 61.1071 29.436 61.5231 29.436C61.9391 29.436 62.3791 29.436 62.8431 29.436C63.3231 29.42 63.7871 29.412 64.2351 29.412C64.6831 29.412 65.0591 29.42 65.3631 29.436C66.2431 29.468 67.0111 29.54 67.6671 29.652C68.3391 29.764 68.8991 30.004 69.3471 30.372C69.8111 30.74 70.1551 31.3 70.3791 32.052C70.6031 32.788 70.7151 33.796 70.7151 35.076ZM61.0911 39.468C61.2031 39.468 61.4031 39.476 61.6911 39.492C61.9951 39.492 62.3231 39.492 62.6751 39.492C63.0271 39.492 63.3631 39.5 63.6831 39.516C64.0191 39.516 64.2751 39.516 64.4511 39.516C65.2671 39.516 65.9551 39.46 66.5151 39.348C67.0751 39.236 67.5231 39.028 67.8591 38.724C68.2111 38.404 68.4591 37.956 68.6031 37.38C68.7631 36.788 68.8431 36.02 68.8431 35.076C68.8431 33.796 68.7071 32.828 68.4351 32.172C68.1791 31.5 67.7391 31.044 67.1151 30.804C66.5071 30.564 65.6511 30.444 64.5471 30.444C64.3231 30.444 64.0031 30.444 63.5871 30.444C63.1871 30.444 62.7871 30.452 62.3871 30.468C61.9871 30.468 61.6751 30.484 61.4511 30.516C61.3391 30.58 61.2511 30.668 61.1871 30.78C61.1231 30.876 61.0911 31.076 61.0911 31.38V39.468ZM77.6412 40.644C76.9052 40.644 76.2412 40.588 75.6492 40.476C75.0732 40.364 74.5692 40.14 74.1372 39.804C73.7212 39.468 73.4012 38.972 73.1772 38.316C72.9532 37.66 72.8412 36.796 72.8412 35.724C72.8412 34.652 72.9532 33.788 73.1772 33.132C73.4012 32.476 73.7212 31.98 74.1372 31.644C74.5692 31.308 75.0732 31.084 75.6492 30.972C76.2412 30.86 76.9052 30.804 77.6412 30.804C78.3612 30.804 79.0092 30.86 79.5852 30.972C80.1772 31.084 80.6812 31.308 81.0972 31.644C81.5132 31.98 81.8332 32.476 82.0572 33.132C82.2812 33.788 82.3932 34.652 82.3932 35.724C82.3932 36.812 82.2812 37.684 82.0572 38.34C81.8332 38.996 81.5132 39.492 81.0972 39.828C80.6812 40.148 80.1772 40.364 79.5852 40.476C79.0092 40.588 78.3612 40.644 77.6412 40.644ZM77.6412 39.708C78.2812 39.708 78.8252 39.612 79.2732 39.42C79.7372 39.228 80.0892 38.852 80.3292 38.292C80.5692 37.732 80.6892 36.876 80.6892 35.724C80.6892 34.572 80.5692 33.716 80.3292 33.156C80.0892 32.596 79.7372 32.22 79.2732 32.028C78.8252 31.836 78.2812 31.74 77.6412 31.74C77.0012 31.74 76.4492 31.836 75.9852 32.028C75.5372 32.22 75.1852 32.596 74.9292 33.156C74.6892 33.716 74.5692 34.572 74.5692 35.724C74.5692 36.876 74.6892 37.732 74.9292 38.292C75.1852 38.852 75.5372 39.228 75.9852 39.42C76.4492 39.612 77.0012 39.708 77.6412 39.708ZM85.449 40.5C85.081 40.5 84.897 40.308 84.897 39.924V31.62C85.361 31.412 85.969 31.228 86.721 31.068C87.489 30.908 88.369 30.828 89.361 30.828C90.289 30.828 91.041 30.892 91.617 31.02C92.193 31.148 92.633 31.34 92.937 31.596C93.241 31.852 93.441 32.188 93.537 32.604C93.649 33.004 93.705 33.492 93.705 34.068V39.78C93.705 39.956 93.681 40.1 93.633 40.212C93.601 40.324 93.529 40.404 93.417 40.452C93.321 40.484 93.169 40.5 92.961 40.5H92.025V33.732C92.025 33.092 91.817 32.62 91.401 32.316C90.985 32.012 90.305 31.86 89.361 31.86C89.057 31.86 88.721 31.884 88.353 31.932C88.001 31.98 87.665 32.052 87.345 32.148C87.025 32.228 86.761 32.34 86.553 32.484V40.5H85.449ZM100.532 40.668C99.5877 40.668 98.8197 40.62 98.2277 40.524C97.6357 40.428 97.1797 40.268 96.8597 40.044C96.5557 39.804 96.3397 39.492 96.2117 39.108C96.0997 38.724 96.0437 38.252 96.0437 37.692C96.0437 36.876 96.1397 36.252 96.3317 35.82C96.5237 35.388 96.8597 35.092 97.3397 34.932C97.8197 34.772 98.4597 34.692 99.2597 34.692C99.6597 34.692 100.092 34.708 100.556 34.74C101.036 34.756 101.492 34.78 101.924 34.812C102.372 34.828 102.756 34.852 103.076 34.884C103.412 34.916 103.636 34.956 103.748 35.004C103.748 34.268 103.684 33.684 103.556 33.252C103.428 32.82 103.228 32.5 102.956 32.292C102.7 32.084 102.372 31.948 101.972 31.884C101.588 31.82 101.14 31.788 100.628 31.788C100.1 31.788 99.5637 31.812 99.0197 31.86C98.4917 31.892 98.0037 31.956 97.5557 32.052C97.1077 32.132 96.7637 32.244 96.5237 32.388V32.028C96.5237 31.692 96.6197 31.46 96.8117 31.332C97.0197 31.188 97.2517 31.092 97.5077 31.044C97.8117 30.964 98.2517 30.9 98.8277 30.852C99.4197 30.804 100.036 30.788 100.676 30.804C101.492 30.804 102.188 30.844 102.764 30.924C103.356 31.004 103.844 31.18 104.228 31.452C104.612 31.708 104.9 32.1 105.092 32.628C105.284 33.156 105.38 33.876 105.38 34.788V39.732C105.284 40.052 104.86 40.292 104.108 40.452C103.356 40.596 102.164 40.668 100.532 40.668ZM100.532 39.852C101.268 39.852 101.852 39.828 102.284 39.78C102.732 39.732 103.068 39.668 103.292 39.588C103.532 39.508 103.684 39.404 103.748 39.276V35.7C103.604 35.652 103.332 35.604 102.932 35.556C102.548 35.508 102.14 35.468 101.708 35.436C101.276 35.388 100.908 35.364 100.604 35.364C99.9157 35.364 99.3557 35.404 98.9237 35.484C98.5077 35.564 98.2037 35.764 98.0117 36.084C97.8357 36.404 97.7477 36.9 97.7477 37.572C97.7477 38.1 97.8117 38.532 97.9397 38.868C98.0677 39.204 98.3237 39.452 98.7077 39.612C99.1077 39.772 99.7157 39.852 100.532 39.852ZM110.453 40.572C109.909 40.572 109.485 40.508 109.181 40.38C108.877 40.236 108.653 39.996 108.509 39.66C108.365 39.324 108.293 38.868 108.293 38.292V31.86H107.381V30.924H108.293V29.196C108.293 28.956 108.309 28.78 108.341 28.668C108.389 28.54 108.461 28.46 108.557 28.428C108.653 28.396 108.789 28.38 108.965 28.38H109.997C109.997 28.412 109.989 28.484 109.973 28.596C109.973 28.692 109.973 28.836 109.973 29.028V30.924H112.205V31.86H109.973V38.1C109.973 38.724 110.037 39.164 110.165 39.42C110.293 39.676 110.581 39.804 111.029 39.804C111.205 39.804 111.389 39.788 111.581 39.756C111.773 39.724 111.909 39.692 111.989 39.66V40.404C111.893 40.42 111.709 40.452 111.437 40.5C111.165 40.548 110.837 40.572 110.453 40.572ZM118.449 40.644C117.521 40.644 116.737 40.58 116.097 40.452C115.473 40.324 114.969 40.084 114.585 39.732C114.217 39.38 113.945 38.892 113.769 38.268C113.609 37.628 113.529 36.804 113.529 35.796C113.529 34.644 113.673 33.7 113.961 32.964C114.249 32.228 114.761 31.684 115.497 31.332C116.233 30.98 117.265 30.804 118.593 30.804C119.617 30.804 120.433 30.94 121.041 31.212C121.665 31.484 122.113 31.9 122.385 32.46C122.673 33.02 122.817 33.748 122.817 34.644V36.012H116.049C116.049 35.82 116.097 35.66 116.193 35.532C116.289 35.388 116.465 35.316 116.721 35.316H121.305L121.281 34.62C121.265 33.628 121.049 32.908 120.633 32.46C120.233 32.012 119.529 31.788 118.521 31.788C117.673 31.788 117.009 31.916 116.529 32.172C116.049 32.428 115.713 32.844 115.521 33.42C115.329 33.996 115.233 34.78 115.233 35.772C115.233 36.828 115.337 37.636 115.545 38.196C115.769 38.74 116.137 39.116 116.649 39.324C117.161 39.516 117.857 39.612 118.737 39.612C119.041 39.612 119.385 39.604 119.769 39.588C120.169 39.556 120.569 39.524 120.969 39.492C121.369 39.46 121.721 39.42 122.025 39.372C122.345 39.308 122.569 39.244 122.697 39.18V39.468C122.697 39.628 122.649 39.78 122.553 39.924C122.473 40.068 122.297 40.188 122.025 40.284C121.673 40.428 121.193 40.524 120.585 40.572C119.993 40.62 119.281 40.644 118.449 40.644Z" fill="url(#paint0_linear_5_35)"/>
<path d="M163.635 34.36L158.667 38.3333H152V37H157.42C157.541 36.9999 157.659 36.9672 157.762 36.9052C157.866 36.8432 157.95 36.7543 158.007 36.648C158.064 36.5417 158.091 36.4219 158.086 36.3015C158.08 36.181 158.041 36.0644 157.975 35.964L156.791 34.188C156.548 33.8224 156.218 33.5226 155.831 33.3153C155.444 33.108 155.012 32.9997 154.573 33H144C143.646 33 143.307 33.1405 143.057 33.3905C142.807 33.6406 142.667 33.9797 142.667 34.3333V42.3333C142.667 43.0406 142.948 43.7189 143.448 44.219C143.948 44.719 144.626 45 145.333 45H158.185C158.755 45.0001 159.319 44.8784 159.838 44.6429C160.358 44.4074 160.82 44.0637 161.196 43.6347L169.333 34.3333L167.397 33.688C166.764 33.4769 166.088 33.4278 165.43 33.5451C164.773 33.6625 164.156 33.9427 163.635 34.36ZM165.677 26.8533C166.279 26.2333 166.651 25.376 166.651 24.4293C166.651 23.4827 166.279 22.6253 165.677 22.0053C165.373 21.688 165.008 21.4353 164.604 21.2626C164.2 21.0898 163.765 21.0005 163.325 21C163.325 21 161.667 20.996 160 22.7147C158.333 20.996 156.675 21 156.675 21C156.235 21.0006 155.8 21.0898 155.396 21.2623C154.992 21.4348 154.627 21.6871 154.323 22.004C153.721 22.6253 153.349 23.4813 153.349 24.428C153.349 25.3747 153.721 26.2333 154.323 26.852L160 33L165.677 26.8533Z" fill="url(#paint1_linear_5_35)"/>
<path d="M0 9C0 4.02944 4.02944 0 9 0H220C224.971 0 229 4.02944 229 9H227C227 5.13401 223.866 2 220 2H9C5.13401 2 2 5.13401 2 9H0ZM229 60C229 64.9706 224.971 69 220 69H9C4.02944 69 0 64.9706 0 60L2 57C2 59.2091 5.13401 61 9 61H220C223.866 61 227 59.2091 227 57L229 60ZM9 69C4.02944 69 0 64.9706 0 60V9C0 4.02944 4.02944 0 9 0V2C5.13401 2 2 5.13401 2 9V57C2 59.2091 5.13401 61 9 61V69ZM220 0C224.971 0 229 4.02944 229 9V60C229 64.9706 224.971 69 220 69V61C223.866 61 227 59.2091 227 57V9C227 5.13401 223.866 2 220 2V0Z" fill="url(#paint2_linear_5_35)" mask="url(#path-1-outside-1_5_35)"/>
<defs>
<linearGradient id="paint0_linear_5_35" x1="54.0688" y1="80.9779" x2="138.368" y2="49.9448" gradientUnits="userSpaceOnUse">
<stop offset="0.0086409" stop-color="#0CC71F"/>
<stop offset="0.38202" stop-color="#3EA0BF"/>
<stop offset="1" stop-color="#FF449E"/>
</linearGradient>
<linearGradient id="paint1_linear_5_35" x1="141.5" y1="72.7059" x2="178.441" y2="66.1657" gradientUnits="userSpaceOnUse">
<stop offset="0.0086409" stop-color="#0CC71F"/>
<stop offset="0.38202" stop-color="#3EA0BF"/>
<stop offset="1" stop-color="#FF449E"/>
</linearGradient>
<linearGradient id="paint2_linear_5_35" x1="-8.93124" y1="138.882" x2="236.872" y2="-0.0367049" gradientUnits="userSpaceOnUse">
<stop offset="0.0086409" stop-color="#0CC71F"/>
<stop offset="0.38202" stop-color="#3EA0BF"/>
<stop offset="1" stop-color="#FF449E"/>
</linearGradient>
</defs>
</svg>
