<svg width="122" height="60" viewBox="0 0 122 30" fill="none" xmlns="http://www.w3.org/2000/svg">
<path d="M25.625 3.75H4.37502C3.00002 3.75 2.00002 5.375 2.75002 6.625L13.375 25.25C13.75 25.875 14.375 26.25 15 26.25C15.625 26.25 16.25 25.875 16.625 25.25L27.25 6.625C28 5.375 27 3.75 25.625 3.75ZM15 23.125L5.37502 6.25H24.5L15 23.125ZM8.62502 8.125H21.375L15 19.375L8.62502 8.125Z" fill="url(#paint0_linear_5_30)"/>
<path d="M59.7385 17.076C59.7385 18.388 59.5945 19.42 59.3065 20.172C59.0185 20.908 58.6025 21.444 58.0585 21.78C57.5305 22.116 56.8745 22.332 56.0905 22.428C55.3225 22.508 54.4505 22.548 53.4745 22.548C53.0105 22.548 52.5225 22.54 52.0105 22.524C51.5145 22.524 51.0185 22.524 50.5225 22.524C50.0425 22.524 49.6025 22.516 49.2025 22.5C48.8185 22.5 48.5065 22.5 48.2665 22.5V12.996C48.2665 12.484 48.3305 12.108 48.4585 11.868C48.6025 11.628 48.9625 11.492 49.5385 11.46C49.7945 11.444 50.1305 11.436 50.5465 11.436C50.9625 11.436 51.4025 11.436 51.8665 11.436C52.3465 11.42 52.8105 11.412 53.2585 11.412C53.7065 11.412 54.0825 11.42 54.3865 11.436C55.2665 11.468 56.0345 11.54 56.6905 11.652C57.3625 11.764 57.9225 12.004 58.3705 12.372C58.8345 12.74 59.1785 13.3 59.4025 14.052C59.6265 14.788 59.7385 15.796 59.7385 17.076ZM50.1145 21.468C50.2265 21.468 50.4265 21.476 50.7145 21.492C51.0185 21.492 51.3465 21.492 51.6985 21.492C52.0505 21.492 52.3865 21.5 52.7065 21.516C53.0425 21.516 53.2985 21.516 53.4745 21.516C54.2905 21.516 54.9785 21.46 55.5385 21.348C56.0985 21.236 56.5465 21.028 56.8825 20.724C57.2345 20.404 57.4825 19.956 57.6265 19.38C57.7865 18.788 57.8665 18.02 57.8665 17.076C57.8665 15.796 57.7305 14.828 57.4585 14.172C57.2025 13.5 56.7625 13.044 56.1385 12.804C55.5305 12.564 54.6745 12.444 53.5705 12.444C53.3465 12.444 53.0265 12.444 52.6105 12.444C52.2105 12.444 51.8105 12.452 51.4105 12.468C51.0105 12.468 50.6985 12.484 50.4745 12.516C50.3625 12.58 50.2745 12.668 50.2105 12.78C50.1465 12.876 50.1145 13.076 50.1145 13.38V21.468ZM66.6646 22.644C65.9286 22.644 65.2646 22.588 64.6726 22.476C64.0966 22.364 63.5926 22.14 63.1606 21.804C62.7446 21.468 62.4246 20.972 62.2006 20.316C61.9766 19.66 61.8646 18.796 61.8646 17.724C61.8646 16.652 61.9766 15.788 62.2006 15.132C62.4246 14.476 62.7446 13.98 63.1606 13.644C63.5926 13.308 64.0966 13.084 64.6726 12.972C65.2646 12.86 65.9286 12.804 66.6646 12.804C67.3846 12.804 68.0326 12.86 68.6086 12.972C69.2006 13.084 69.7046 13.308 70.1206 13.644C70.5366 13.98 70.8566 14.476 71.0806 15.132C71.3046 15.788 71.4166 16.652 71.4166 17.724C71.4166 18.812 71.3046 19.684 71.0806 20.34C70.8566 20.996 70.5366 21.492 70.1206 21.828C69.7046 22.148 69.2006 22.364 68.6086 22.476C68.0326 22.588 67.3846 22.644 66.6646 22.644ZM66.6646 21.708C67.3046 21.708 67.8486 21.612 68.2966 21.42C68.7606 21.228 69.1126 20.852 69.3526 20.292C69.5926 19.732 69.7126 18.876 69.7126 17.724C69.7126 16.572 69.5926 15.716 69.3526 15.156C69.1126 14.596 68.7606 14.22 68.2966 14.028C67.8486 13.836 67.3046 13.74 66.6646 13.74C66.0246 13.74 65.4726 13.836 65.0086 14.028C64.5606 14.22 64.2086 14.596 63.9526 15.156C63.7126 15.716 63.5926 16.572 63.5926 17.724C63.5926 18.876 63.7126 19.732 63.9526 20.292C64.2086 20.852 64.5606 21.228 65.0086 21.42C65.4726 21.612 66.0246 21.708 66.6646 21.708ZM74.4725 22.5C74.1045 22.5 73.9205 22.308 73.9205 21.924V13.62C74.3845 13.412 74.9925 13.228 75.7445 13.068C76.5125 12.908 77.3925 12.828 78.3845 12.828C79.3125 12.828 80.0645 12.892 80.6405 13.02C81.2165 13.148 81.6565 13.34 81.9605 13.596C82.2645 13.852 82.4645 14.188 82.5605 14.604C82.6725 15.004 82.7285 15.492 82.7285 16.068V21.78C82.7285 21.956 82.7045 22.1 82.6565 22.212C82.6245 22.324 82.5525 22.404 82.4405 22.452C82.3445 22.484 82.1925 22.5 81.9845 22.5H81.0485V15.732C81.0485 15.092 80.8405 14.62 80.4245 14.316C80.0085 14.012 79.3285 13.86 78.3845 13.86C78.0805 13.86 77.7445 13.884 77.3765 13.932C77.0245 13.98 76.6885 14.052 76.3685 14.148C76.0485 14.228 75.7845 14.34 75.5765 14.484V22.5H74.4725ZM89.8912 22.644C89.1552 22.644 88.4912 22.588 87.8992 22.476C87.3232 22.364 86.8192 22.14 86.3872 21.804C85.9712 21.468 85.6512 20.972 85.4272 20.316C85.2032 19.66 85.0912 18.796 85.0912 17.724C85.0912 16.652 85.2032 15.788 85.4272 15.132C85.6512 14.476 85.9712 13.98 86.3872 13.644C86.8192 13.308 87.3232 13.084 87.8992 12.972C88.4912 12.86 89.1552 12.804 89.8912 12.804C90.6112 12.804 91.2592 12.86 91.8352 12.972C92.4272 13.084 92.9312 13.308 93.3472 13.644C93.7632 13.98 94.0832 14.476 94.3072 15.132C94.5312 15.788 94.6432 16.652 94.6432 17.724C94.6432 18.812 94.5312 19.684 94.3072 20.34C94.0832 20.996 93.7632 21.492 93.3472 21.828C92.9312 22.148 92.4272 22.364 91.8352 22.476C91.2592 22.588 90.6112 22.644 89.8912 22.644ZM89.8912 21.708C90.5312 21.708 91.0752 21.612 91.5232 21.42C91.9872 21.228 92.3392 20.852 92.5792 20.292C92.8192 19.732 92.9392 18.876 92.9392 17.724C92.9392 16.572 92.8192 15.716 92.5792 15.156C92.3392 14.596 91.9872 14.22 91.5232 14.028C91.0752 13.836 90.5312 13.74 89.8912 13.74C89.2512 13.74 88.6992 13.836 88.2352 14.028C87.7872 14.22 87.4352 14.596 87.1792 15.156C86.9392 15.716 86.8192 16.572 86.8192 17.724C86.8192 18.876 86.9392 19.732 87.1792 20.292C87.4352 20.852 87.7872 21.228 88.2352 21.42C88.6992 21.612 89.2512 21.708 89.8912 21.708ZM98.827 22.5H97.771C97.563 22.5 97.403 22.452 97.291 22.356C97.195 22.244 97.147 22.044 97.147 21.756V13.404C97.499 13.292 97.979 13.172 98.587 13.044C99.211 12.916 99.979 12.852 100.891 12.852C101.755 12.852 102.435 12.916 102.931 13.044C103.443 13.156 103.811 13.316 104.035 13.524C104.275 13.732 104.427 13.988 104.491 14.292C104.571 14.58 104.611 14.908 104.611 15.276H103.003L102.979 14.94C102.963 14.572 102.843 14.308 102.619 14.148C102.395 13.972 102.131 13.868 101.827 13.836C101.523 13.788 101.219 13.764 100.915 13.764C100.451 13.764 100.035 13.804 99.667 13.884C99.315 13.964 99.035 14.068 98.827 14.196V22.5ZM107.242 22.5C106.954 22.5 106.762 22.46 106.666 22.38C106.57 22.284 106.522 22.092 106.522 21.804V13.62C106.65 13.572 106.834 13.508 107.074 13.428C107.314 13.348 107.602 13.268 107.938 13.188C108.274 13.092 108.658 13.02 109.09 12.972C109.538 12.908 110.026 12.876 110.554 12.876C111.098 12.876 111.57 12.924 111.97 13.02C112.37 13.1 112.714 13.252 113.002 13.476C113.29 13.684 113.53 13.972 113.722 14.34H113.386C113.514 14.068 113.698 13.836 113.938 13.644C114.178 13.436 114.458 13.276 114.778 13.164C115.098 13.052 115.426 12.972 115.762 12.924C116.114 12.876 116.45 12.852 116.77 12.852C117.666 12.852 118.37 12.94 118.882 13.116C119.394 13.292 119.754 13.588 119.962 14.004C120.186 14.42 120.298 14.972 120.298 15.66V21.852C120.298 22.108 120.25 22.284 120.154 22.38C120.058 22.46 119.882 22.5 119.626 22.5H118.618C118.618 21.348 118.618 20.204 118.618 19.068C118.618 17.916 118.618 16.764 118.618 15.612C118.618 14.908 118.442 14.428 118.09 14.172C117.754 13.9 117.25 13.764 116.578 13.764C116.258 13.764 115.914 13.804 115.546 13.884C115.194 13.964 114.89 14.084 114.634 14.244C114.378 14.404 114.25 14.588 114.25 14.796V22.5H112.57V14.988C112.57 14.652 112.37 14.372 111.97 14.148C111.586 13.908 111.09 13.788 110.482 13.788C110.114 13.788 109.762 13.82 109.426 13.884C109.09 13.932 108.81 14.012 108.586 14.124C108.362 14.22 108.234 14.356 108.202 14.532V22.5H107.242Z" fill="url(#paint1_linear_5_30)"/>
<defs>
<linearGradient id="paint0_linear_5_30" x1="1.39901" y1="52.2243" x2="36.0484" y2="46.0865" gradientUnits="userSpaceOnUse">
<stop offset="0.0086409" stop-color="#0CC71F"/>
<stop offset="0.38202" stop-color="#3EA0BF"/>
<stop offset="1" stop-color="#FF449E"/>
</linearGradient>
<linearGradient id="paint1_linear_5_30" x1="42.675" y1="62.9779" x2="135.134" y2="24.3687" gradientUnits="userSpaceOnUse">
<stop offset="0.0086409" stop-color="#0CC71F"/>
<stop offset="0.38202" stop-color="#3EA0BF"/>
<stop offset="1" stop-color="#FF449E"/>
</linearGradient>
</defs>
</svg>
