<svg width="48" height="48" viewBox="0 0 48 48" fill="none" xmlns="http://www.w3.org/2000/svg">
<path d="M24 37C31.1797 37 37 31.1797 37 24C37 16.8203 31.1797 11 24 11C16.8203 11 11 16.8203 11 24C11 31.1797 16.8203 37 24 37Z" stroke="#131313" stroke-width="1.5" stroke-linecap="round" stroke-linejoin="round"/>
<path d="M38.28 38.28L38.02 38.02M38.02 9.98L38.28 9.72L38.02 9.98ZM9.72 38.28L9.98 38.02L9.72 38.28ZM24 4.16V4V4.16ZM24 44V43.84V44ZM4.16 24H4H4.16ZM44 24H43.84H44ZM9.98 9.98L9.72 9.72L9.98 9.98Z" stroke="#131313" stroke-width="2" stroke-linecap="round" stroke-linejoin="round"/>
</svg>
