<svg width="28" height="24" viewBox="0 0 28 24" fill="none" xmlns="http://www.w3.org/2000/svg">
<path d="M21.6347 13.36L16.6667 17.3333H10V16H15.42C15.5406 15.9999 15.6589 15.9672 15.7623 15.9052C15.8658 15.8432 15.9505 15.7543 16.0074 15.648C16.0643 15.5417 16.0913 15.4219 16.0856 15.3015C16.0798 15.181 16.0415 15.0644 15.9747 14.964L14.7907 13.188C14.5478 12.8224 14.2182 12.5226 13.8313 12.3153C13.4444 12.108 13.0123 11.9997 12.5733 12H2C1.64638 12 1.30724 12.1405 1.05719 12.3905C0.807143 12.6406 0.666667 12.9797 0.666667 13.3333V21.3333C0.666667 22.0406 0.947618 22.7189 1.44772 23.219C1.94781 23.719 2.62609 24 3.33333 24H16.1853C16.7555 24.0001 17.3191 23.8784 17.8383 23.6429C18.3576 23.4074 18.8205 23.0637 19.196 22.6347L27.3333 13.3333L25.3973 12.688C24.7639 12.4769 24.0877 12.4278 23.4305 12.5451C22.7732 12.6625 22.1558 12.9427 21.6347 13.36ZM23.6773 5.85333C24.2787 5.23333 24.6507 4.376 24.6507 3.42933C24.6507 2.48267 24.2787 1.62533 23.6773 1.00533C23.3732 0.687971 23.0081 0.435328 22.604 0.26257C22.1998 0.0898126 21.7649 0.000502183 21.3253 8.58885e-08C21.3253 8.58885e-08 19.6667 -0.00400019 18 1.71467C16.3333 -0.00400019 14.6747 8.58885e-08 14.6747 8.58885e-08C14.2353 0.000558886 13.8005 0.089764 13.3963 0.262277C12.9922 0.434789 12.627 0.687063 12.3227 1.004C11.7213 1.62533 11.3493 2.48133 11.3493 3.428C11.3493 4.37467 11.7213 5.23333 12.3227 5.852L18 12L23.6773 5.85333Z" fill="url(#paint0_linear_6_70)"/>
<defs>
<linearGradient id="paint0_linear_6_70" x1="-0.499999" y1="51.7059" x2="36.4408" y2="45.1657" gradientUnits="userSpaceOnUse">
<stop offset="0.0086409" stop-color="#0CC71F"/>
<stop offset="0.38202" stop-color="#3EA0BF"/>
<stop offset="1" stop-color="#FF449E"/>
</linearGradient>
</defs>
</svg>
